<!--?xml version="1.0" standalone="no"?-->
              <svg id="sw-js-blob-svg" viewBox="0 0 100 100" xmlns="http://www.w3.org/2000/svg" version="1.1">
                    <defs> 
                        <linearGradient id="sw-gradient" x1="0" x2="1" y1="1" y2="0">
                            <stop id="stop1" stop-color="rgba(228, 234, 255, 1)" offset="0%"></stop>
                            <stop id="stop2" stop-color="rgba(119, 93, 226, 1)" offset="100%"></stop>
                        </linearGradient>
                    </defs>
                <path fill="url(#sw-gradient)" d="M19.9,-37C24.3,-31.9,25.5,-23.6,28.5,-17C31.5,-10.3,36.4,-5.1,38.7,1.3C40.9,7.7,40.6,15.5,36.7,20.8C32.9,26.1,25.6,28.9,18.9,30.2C12.2,31.4,6.1,31.1,-0.7,32.3C-7.5,33.5,-15.1,36.4,-19.7,33.9C-24.3,31.5,-26,23.7,-30.5,17.2C-34.9,10.7,-42.1,5.3,-43.6,-0.8C-45.1,-7,-40.8,-14,-35.2,-18.7C-29.7,-23.4,-23,-25.7,-16.9,-29.9C-10.8,-34,-5.4,-39.9,1.2,-41.9C7.7,-43.9,15.5,-42.1,19.9,-37Z" width="100%" height="100%" transform="translate(50 50)" stroke-width="0" style="transition: all 0.3s ease 0s;"></path>
              </svg>